<mxfile host="app.diagrams.net" agent="Mozilla/5.0 (Windows NT 10.0; Win64; x64) AppleWebKit/537.36 (KHTML, like Gecko) Chrome/134.0.0.0 Safari/537.36" version="26.1.3">
  <diagram name="Page-1" id="86FY7t0vUXBt6ka-nkq8">
    <mxGraphModel dx="1072" dy="576" grid="1" gridSize="10" guides="1" tooltips="1" connect="1" arrows="1" fold="1" page="1" pageScale="1" pageWidth="827" pageHeight="1169" math="0" shadow="0">
      <root>
        <mxCell id="0" />
        <mxCell id="1" parent="0" />
        <mxCell id="lLYUYkc1CGLo7XCbQcHj-10" value="User (Patient)" style="ellipse;whiteSpace=wrap;html=1;aspect=fixed;align=center;verticalAlign=middle;strokeWidth=2;strokeColor=#000000;fillColor=#dae8fc;" vertex="1" parent="1">
          <mxGeometry x="460" y="290" width="100" height="60" as="geometry" />
        </mxCell>
        <mxCell id="lLYUYkc1CGLo7XCbQcHj-11" value="NFC Card Tap" style="rounded=1;whiteSpace=wrap;html=1;strokeWidth=2;strokeColor=#000000;fillColor=#ffffff;" vertex="1" parent="1">
          <mxGeometry x="600" y="300" width="110" height="40" as="geometry" />
        </mxCell>
        <mxCell id="lLYUYkc1CGLo7XCbQcHj-12" value="Frontend (Bootstrap, JS, jQuery)" style="rounded=1;whiteSpace=wrap;html=1;strokeWidth=2;strokeColor=#000000;fillColor=#fff2cc;" vertex="1" parent="1">
          <mxGeometry x="780" y="280" width="220" height="80" as="geometry" />
        </mxCell>
        <mxCell id="lLYUYkc1CGLo7XCbQcHj-13" value="Django Backend" style="swimlane;whiteSpace=wrap;html=1;childLayout=stackLayout;horizontal=1;rounded=1;strokeWidth=2;strokeColor=#000000;fillColor=#d5e8d4;horizontalStack=0;resizeParent=1;" vertex="1" parent="1">
          <mxGeometry x="1080" y="260" width="240" height="340" as="geometry" />
        </mxCell>
        <mxCell id="lLYUYkc1CGLo7XCbQcHj-14" value="Authentication Module" style="rounded=1;whiteSpace=wrap;html=1;strokeWidth=1;strokeColor=#000000;fillColor=#ffffff;" vertex="1" parent="lLYUYkc1CGLo7XCbQcHj-13">
          <mxGeometry y="23" width="240" height="50" as="geometry" />
        </mxCell>
        <mxCell id="lLYUYkc1CGLo7XCbQcHj-15" value="Data Processing" style="rounded=1;whiteSpace=wrap;html=1;strokeWidth=1;strokeColor=#000000;fillColor=#ffffff;" vertex="1" parent="lLYUYkc1CGLo7XCbQcHj-13">
          <mxGeometry y="73" width="240" height="50" as="geometry" />
        </mxCell>
        <mxCell id="lLYUYkc1CGLo7XCbQcHj-16" value="Export Service (CSV, PDF)" style="rounded=1;whiteSpace=wrap;html=1;strokeWidth=1;strokeColor=#000000;fillColor=#ffffff;" vertex="1" parent="lLYUYkc1CGLo7XCbQcHj-13">
          <mxGeometry y="123" width="240" height="50" as="geometry" />
        </mxCell>
        <mxCell id="lLYUYkc1CGLo7XCbQcHj-17" value="Database (MySQL)" style="shape=cylinder;whiteSpace=wrap;html=1;verticalAlign=middle;strokeWidth=2;strokeColor=#000000;fillColor=#f8cecc;" vertex="1" parent="1">
          <mxGeometry x="1380" y="290" width="140" height="80" as="geometry" />
        </mxCell>
        <mxCell id="lLYUYkc1CGLo7XCbQcHj-18" value="Encrypted Auth &amp; Secure Transfer" style="note;whiteSpace=wrap;html=1;strokeWidth=1;strokeColor=#000000;fillColor=#e1d5e7;fontStyle=1;" vertex="1" parent="1">
          <mxGeometry x="1370" y="400" width="160" height="60" as="geometry" />
        </mxCell>
        <mxCell id="lLYUYkc1CGLo7XCbQcHj-19" value="" style="edgeStyle=orthogonalEdgeStyle;rounded=1;orthogonalLoop=1;strokeWidth=2;endArrow=block;endFill=1;" edge="1" parent="1" source="lLYUYkc1CGLo7XCbQcHj-10" target="lLYUYkc1CGLo7XCbQcHj-11">
          <mxGeometry relative="1" as="geometry" />
        </mxCell>
        <mxCell id="lLYUYkc1CGLo7XCbQcHj-20" value="" style="edgeStyle=orthogonalEdgeStyle;rounded=1;orthogonalLoop=1;strokeWidth=2;endArrow=block;endFill=1;" edge="1" parent="1" source="lLYUYkc1CGLo7XCbQcHj-11" target="lLYUYkc1CGLo7XCbQcHj-12">
          <mxGeometry relative="1" as="geometry" />
        </mxCell>
        <mxCell id="lLYUYkc1CGLo7XCbQcHj-21" value="" style="edgeStyle=orthogonalEdgeStyle;rounded=1;orthogonalLoop=1;strokeWidth=2;endArrow=block;endFill=1;" edge="1" parent="1" source="lLYUYkc1CGLo7XCbQcHj-12" target="lLYUYkc1CGLo7XCbQcHj-13">
          <mxGeometry relative="1" as="geometry" />
        </mxCell>
        <mxCell id="lLYUYkc1CGLo7XCbQcHj-22" value="" style="edgeStyle=orthogonalEdgeStyle;rounded=1;orthogonalLoop=1;strokeWidth=2;endArrow=block;endFill=1;" edge="1" parent="1" source="lLYUYkc1CGLo7XCbQcHj-13" target="lLYUYkc1CGLo7XCbQcHj-17">
          <mxGeometry relative="1" as="geometry" />
        </mxCell>
        <mxCell id="lLYUYkc1CGLo7XCbQcHj-23" value="" style="edgeStyle=elbowEdgeStyle;rounded=1;strokeWidth=1;dashed=1;endArrow=none;" edge="1" parent="1" source="lLYUYkc1CGLo7XCbQcHj-13" target="lLYUYkc1CGLo7XCbQcHj-18">
          <mxGeometry relative="1" as="geometry" />
        </mxCell>
      </root>
    </mxGraphModel>
  </diagram>
</mxfile>
